<svg width="800" height="800" viewBox="0 0 800 800" fill="none" xmlns="http://www.w3.org/2000/svg">
<g clip-path="url(#clip0_56_7)">
<path d="M365.673 378.521C365.6 376.849 365.6 375.177 365.6 373.505C365.6 272.978 365.6 172.451 365.673 71.9244C365.673 69.235 365.31 66.5455 366.218 63.5653C392.24 58.877 792.422 0.0363438 798.564 0C798.71 1.59913 798.928 3.2346 799 4.87007C799.763 81.6282 799.364 373.614 798.273 380.556C797.219 380.665 796.02 380.919 794.784 380.956C787.516 380.992 780.247 380.992 772.833 381.029C640.032 381.574 507.123 382.119 374.287 382.628C371.633 382.628 368.98 382.918 365.964 382.228C365.891 380.919 365.709 379.684 365.673 378.521ZM798.092 422.569C795.984 421.516 793.73 421.915 791.441 421.915C762.402 421.697 733.436 421.443 704.434 421.334C627.53 421.043 550.59 420.789 473.541 420.498C439.96 420.425 406.414 420.134 372.833 419.989C370.579 419.989 368.253 419.48 366 420.643C365.164 423.042 365.455 425.622 365.455 428.021C365.382 529.384 365.382 630.747 365.382 732.11C365.382 733.309 365.346 734.581 365.455 735.889C365.528 737.016 365.855 738.216 366.073 739.706C509.667 759.804 653.044 779.902 796.456 799.964C797.038 800.036 797.619 799.746 798.382 799.6C798.528 798.764 798.782 797.965 798.782 797.165C798.782 672.688 798.71 548.174 798.637 423.696C798.782 423.405 798.382 423.042 798.092 422.569ZM325.004 419.916C217.826 419.444 110.721 419.044 3.50694 418.608C2.92544 418.608 2.38029 418.899 1.50803 419.19C1.28997 420.134 1.07191 421.188 0.99922 422.17C0.308688 439.142 0.781158 682.609 1.65341 688.643C109.304 703.762 216.772 718.808 324.241 733.854C325.004 734 325.84 733.782 326.603 733.709C326.894 732.946 327.221 732.437 327.221 731.819C327.294 628.639 327.294 525.422 327.294 422.206C327.294 421.588 326.931 421.079 326.785 420.353C326.131 420.207 325.586 419.916 325.004 419.916ZM325.586 69.5621C220.043 85.0445 114.465 100.6 8.95852 116.155C6.52348 116.482 4.08844 117.063 1.43535 117.572C1.36266 119.426 1.07191 121.025 1.07191 122.66C0.272344 184.99 0.672126 377.321 1.83513 384.299C4.34285 384.336 6.66885 384.408 8.88583 384.408C109.595 383.972 210.34 383.573 311.012 383.136C314.973 383.136 319.008 383.136 322.896 383.027C324.241 382.991 325.622 382.555 327.294 382.264C327.294 278.721 327.294 175.541 327.294 72.3242C327.294 71.5246 327.003 70.7251 326.858 70.0345C326.349 69.8165 325.913 69.4894 325.586 69.5621Z" fill="white"/>
</g>
<defs>
<clipPath id="clip0_56_7">
<rect width="800" height="800" fill="white"/>
</clipPath>
</defs>
</svg>
